<?xml version="1.0" encoding="UTF-8"?><!DOCTYPE svg PUBLIC "-//W3C//DTD SVG 1.1//EN" "http://www.w3.org/Graphics/SVG/1.1/DTD/svg11.dtd"><svg xmlns="http://www.w3.org/2000/svg" xmlns:xlink="http://www.w3.org/1999/xlink" version="1.1" id="Layer_1" x="0px" y="0px" width="512px" height="512px" viewBox="0 0 512 512" xml:space="preserve"><path fill="#D62127" d="M7.9 256C7.9 119 119 7.9 256 7.9S504.1 119 504.1 256 393 504.1 256 504.1 7.9 393 7.9 256z"/><path fill="#EE4344" d="M294.1 258.8l97.1-112.7c10.6-12.3 9.2-30.8-3.1-41.4-12.3-10.6-30.8-9.2-41.4 3.1l-91.3 106-91.3-106c-10.6-12.3-29.1-13.7-41.4-3.1-12.3 10.6-13.7 29.1-3.1 41.4l97.1 112.7-97.1 112.7c-10.6 12.3-9.2 30.8 3.1 41.4 5.5 4.8 12.4 7.1 19.2 7.1 8.2 0 16.5-3.5 22.3-10.2l91.3-106 91.3 106c5.8 6.7 14 10.2 22.3 10.2 6.8 0 13.6-2.3 19.2-7.1 12.3-10.6 13.7-29.1 3.1-41.4l-97.3-112.7z"/><metadata><rdf:RDF xmlns:rdf="http://www.w3.org/1999/02/22-rdf-syntax-ns#" xmlns:rdfs="http://www.w3.org/2000/01/rdf-schema#" xmlns:dc="http://purl.org/dc/elements/1.1/"><rdf:Description about="https://iconscout.com/legal#licenses" dc:title="checkmark,no" dc:description="checkmark,no" dc:publisher="Iconscout" dc:date="2018-03-14" dc:format="image/svg+xml" dc:language="en"><dc:creator><rdf:Bag><rdf:li>Roundicons.com</rdf:li></rdf:Bag></dc:creator></rdf:Description></rdf:RDF></metadata></svg>