<?xml version="1.0" encoding="UTF-8"?><!DOCTYPE svg PUBLIC "-//W3C//DTD SVG 1.1//EN" "http://www.w3.org/Graphics/SVG/1.1/DTD/svg11.dtd"><svg xmlns="http://www.w3.org/2000/svg" xmlns:xlink="http://www.w3.org/1999/xlink" version="1.1" id="Layer_1" x="0px" y="0px" width="512px" height="512px" viewBox="0 0 512 512" xml:space="preserve"><path fill="#A0BF19" d="M7.9 256C7.9 119 119 7.9 256 7.9S504.1 119 504.1 256 393 504.1 256 504.1 7.9 393 7.9 256z"/><path fill="#C0DD19" d="M440.3 153.5c-7.8-20.2-23.7-17-41-13.6-10.3 2.1-56.2 15.6-128.7 92.1-30.1 31.7-50 57.1-63 76.4-8-9.8-17.1-20.3-26.7-29.9-29.6-29.5-62.5-49.8-63.9-50.7-13.8-8.5-31.9-4.1-40.4 9.7-8.5 13.8-4.1 31.9 9.7 40.4.3.2 28.6 17.7 53 42.1 24.9 24.9 47.5 58.7 47.7 59 5.5 8.3 14.7 13.1 24.5 13.1 1.7 0 3.4-.1 5-.4 11.5-2 20.7-10.6 23.5-21.9.1-.3 11.7-32.5 73.3-97.4 49.6-52.3 82.6-68.9 94.1-73.5.1 0 .2 0 .3-.1-.1 0 .4-.2 1.1-.5 2-.7 3-1 3.1-1-.6.1-.9.2-.9.2v-.1c5.3-2.3 15.2-6.6 15.4-6.7 14.9-6.1 19.7-22.1 13.9-37.2z"/><metadata><rdf:RDF xmlns:rdf="http://www.w3.org/1999/02/22-rdf-syntax-ns#" xmlns:rdfs="http://www.w3.org/2000/01/rdf-schema#" xmlns:dc="http://purl.org/dc/elements/1.1/"><rdf:Description about="https://iconscout.com/legal#licenses" dc:title="checkmark,yes" dc:description="checkmark,yes" dc:publisher="Iconscout" dc:date="2018-03-14" dc:format="image/svg+xml" dc:language="en"><dc:creator><rdf:Bag><rdf:li>Roundicons.com</rdf:li></rdf:Bag></dc:creator></rdf:Description></rdf:RDF></metadata></svg>