<svg xmlns="http://www.w3.org/2000/svg" data-name="Layer 1" viewBox="0 0 512 512"><circle cx="256" cy="256" r="219.5" fill="#fdd402"/><path fill="#fbbf13" d="M96.5,256C96.5,144.9519,178.969,53.17993,286,38.54956A221.36948,221.36948,0,0,0,256,36.5C134.77344,36.5,36.5,134.77344,36.5,256S134.77344,475.5,256,475.5a221.36948,221.36948,0,0,0,30-2.04956C178.969,458.82007,96.5,367.0481,96.5,256Z"/><rect width="82" height="30" x="215.5" y="148.765" fill="#fbbf13"/><rect width="82" height="30" x="215.5" y="128.765" fill="#3c3b41"/><path fill="#74563a" d="M255.99707,378.876h-.208a131.39721,131.39721,0,0,1-74.44433-23.583,7.50006,7.50006,0,0,1,8.61523-12.2793A116.23611,116.23611,0,0,0,255.8125,363.876h.18457a116.20964,116.20964,0,0,0,66.043-20.86231,7.50006,7.50006,0,0,1,8.61523,12.2793A131.37984,131.37984,0,0,1,255.99707,378.876Z"/><path fill="#fbbf13" d="M418.455,289.76464H332.78855c-14.16249,0-20.67356-22.31821-23.62088-36.17062L289.21739,151.6087l140.727-2.84406a30,30,0,0,1,29.70268,34.21315l-11.48936,81A30,30,0,0,1,418.455,289.76464Z"/><path fill="#3c3b41" d="M421.455,269.76464H335.78855a30,30,0,0,1-29.34318-23.75677L281.5,128.76464H432.94439a30,30,0,0,1,29.70268,34.21315l-11.48936,81A30,30,0,0,1,421.455,269.76464Z"/><path fill="#fbbf13" d="M91.545,289.76464h85.66648c14.16249,0,23.67356-22.31821,26.62088-36.17062L220.78261,151.6087l-140.727-2.84406a30,30,0,0,0-29.70268,34.21315l11.48936,81A30,30,0,0,0,91.545,289.76464Z"/><path fill="#3c3b41" d="M91.545,269.76464h85.66648a30,30,0,0,0,29.34318-23.75677L231.5,128.76464H80.05561a30,30,0,0,0-29.70268,34.21315l11.48936,81A30,30,0,0,0,91.545,269.76464Z"/><path fill="#2c2b2d" d="M101.84229,243.97778l-11.48938-81a30,30,0,0,1,29.70275-34.21313h-40a30,30,0,0,0-29.70275,34.21313l11.48938,81a30,30,0,0,0,29.70263,25.78687h40A30,30,0,0,1,101.84229,243.97778Z"/></svg>