<svg xmlns="http://www.w3.org/2000/svg" data-name="Layer 1" viewBox="0 0 512 512"><circle cx="256" cy="256" r="219.5" fill="#fdd402"/><path fill="#fbbf13" d="M96.5,256C96.5,144.9519,178.969,53.17993,286,38.54956A221.36948,221.36948,0,0,0,256,36.5C134.77344,36.5,36.5,134.77344,36.5,256S134.77344,475.5,256,475.5a221.36948,221.36948,0,0,0,30-2.04956C178.969,458.82007,96.5,367.0481,96.5,256Z"/><path fill="#74563a" d="M364.32813 244.66992a7.46572 7.46572 0 0 1-4.06739-1.2041l-56.66992-36.66894a7.5 7.5 0 0 1 0-12.59375l56.66992-36.66895a7.5 7.5 0 1 1 8.14844 12.59375L321.4707 200.5l46.93848 30.37207a7.50075 7.50075 0 0 1-4.08105 13.79785zM147.67188 244.66992a7.50075 7.50075 0 0 1-4.08106-13.79785L190.5293 200.5l-46.93848-30.37207a7.5 7.5 0 1 1 8.14844-12.59375l56.66992 36.66895a7.5 7.5 0 0 1 0 12.59375l-56.66992 36.66894A7.46571 7.46571 0 0 1 147.67188 244.66992zM357.23378 364.146l-26.98848-6.27957a10 10 0 0 0-7.07545.9722l-28.46179 15.61186a10 10 0 0 1-9.36684.13339L255.66778 359.39a10 10 0 0 0-9.288.09062l-27.33487 14.67644a10 10 0 0 1-10.29021-.49843L187.49609 359.439a10 10 0 0 0-7.91042-1.40783l-24.735 5.98191A10 10 0 0 1 142.5 354.29332v-3.19385a10 10 0 0 1 4.12757-8.0941l31.58191-22.91329a10 10 0 0 1 11.43222-.21786l19.113 12.78446a10 10 0 0 0 10.29021.49843l27.33487-14.67644a10 10 0 0 1 9.288-.09062l29.67344 15.19378a10 10 0 0 0 9.36684-.13339l26.371-14.465a10 10 0 0 1 10.533.56772l33.61174 23.46192A10 10 0 0 1 369.5 351.215v3.19114A10 10 0 0 1 357.23378 364.146z"/><path fill="#674b34" d="M172.5,354.29333v-3.19384a10,10,0,0,1,4.12744-8.09412L199.459,326.4408l-9.81738-6.56653a9.99978,9.99978,0,0,0-11.43213.21777l-31.582,22.91333A10,10,0,0,0,142.5,351.09949v3.19384a10.00006,10.00006,0,0,0,12.35059,9.71985l19.06347-4.61035A9.91027,9.91027,0,0,1,172.5,354.29333Z"/></svg>