<?xml version="1.0" encoding="UTF-8"?><!DOCTYPE svg PUBLIC "-//W3C//DTD SVG 1.1//EN" "http://www.w3.org/Graphics/SVG/1.1/DTD/svg11.dtd"><svg xmlns="http://www.w3.org/2000/svg" xmlns:xlink="http://www.w3.org/1999/xlink" version="1.1" id="Layer_1" x="0px" y="0px" width="512px" height="512px" viewBox="0 0 512 512" xml:space="preserve"><path fill="#FFC50B" d="M7.9 256C7.9 119 119 7.9 256 7.9S504.1 119 504.1 256 393 504.1 256 504.1 7.9 393 7.9 256z"/><path fill="#D62127" d="M338.2 125c-30.2 0-58.2 14.7-75 39.3l-3.5 4.4-2.3-3c-16.7-25.6-44.7-40.8-75.2-40.8-52 0-89.7 37.7-89.7 89.7 0 76.8 139 189.9 149.1 198 4.8 4.6 11 7.1 17.7 7.1 6.6 0 12.9-2.5 17.7-7.1 10.2-8.2 151-123.1 151-198 0-51.8-37.8-89.6-89.8-89.6z"/><metadata><rdf:RDF xmlns:rdf="http://www.w3.org/1999/02/22-rdf-syntax-ns#" xmlns:rdfs="http://www.w3.org/2000/01/rdf-schema#" xmlns:dc="http://purl.org/dc/elements/1.1/"><rdf:Description about="https://iconscout.com/legal#licenses" dc:title="heart" dc:description="heart" dc:publisher="Iconscout" dc:date="2018-03-14" dc:format="image/svg+xml" dc:language="en"><dc:creator><rdf:Bag><rdf:li>Roundicons.com</rdf:li></rdf:Bag></dc:creator></rdf:Description></rdf:RDF></metadata></svg>