<svg xmlns="http://www.w3.org/2000/svg" data-name="Layer 1" viewBox="0 0 512 512"><circle cx="256" cy="256" r="219.5" fill="#fdd402"/><path fill="#fbbf13" d="M96.5,256C96.5,144.9519,178.969,53.17993,286,38.54956A221.36948,221.36948,0,0,0,256,36.5C134.7735,36.5,36.5,134.77344,36.5,256S134.7735,475.5,256,475.5a221.36948,221.36948,0,0,0,30-2.04956C178.969,458.82007,96.5,367.0481,96.5,256Z"/><path fill="#fff" d="M221.50213,194.26035a56.5,56.5,0,1,1-56.66-56.5h.16a56.48694,56.48694,0,0,1,56.5,56.5Z"/><path fill="#e0e0e2" d="M138.50214,194.26025a56.50771,56.50771,0,0,1,41.51806-54.47766,56.5347,56.5347,0,0,0-15.01806-2.02234h-.16a56.50011,56.50011,0,1,0,15.15833,110.97193A56.50367,56.50367,0,0,1,138.50214,194.26025Z"/><path fill="#74563a" d="M213.26208,164.87022a27.9997,27.9997,0,1,1-48.39-27.06995l-.03-.03992h.16A56.46416,56.46416,0,0,1,213.26208,164.87022Z"/><path fill="#674b34" d="M179.1521,154.76025a27.84465,27.84465,0,0,1,3.81775-14.07788,56.41961,56.41961,0,0,0-17.96771-2.92212h-.16l.03.04a27.98865,27.98865,0,0,0,32.2677,43.10816A28.01094,28.01094,0,0,1,179.1521,154.76025Z"/><path fill="#fff" d="M412.50213,194.26035a56.5,56.5,0,1,1-56.65-56.5h.15a56.48694,56.48694,0,0,1,56.5,56.5Z"/><path fill="#e0e0e2" d="M329.50214,194.26025a56.514,56.514,0,0,1,41.51666-54.478,56.52977,56.52977,0,0,0-15.01666-2.022h-.15a56.50009,56.50009,0,1,0,15.14832,110.97193A56.50367,56.50367,0,0,1,329.50214,194.26025Z"/><path fill="#74563a" d="M404.26208,164.87022a27.9997,27.9997,0,1,1-48.39-27.06995l-.02-.03992h.15A56.46416,56.46416,0,0,1,404.26208,164.87022Z"/><path fill="#674b34" d="M370.1521,154.76025a27.84465,27.84465,0,0,1,3.81775-14.07788,56.41961,56.41961,0,0,0-17.96771-2.92212h-.15l.02.04a27.98865,27.98865,0,0,0,32.2677,43.10816A28.01094,28.01094,0,0,1,370.1521,154.76025Z"/><path fill="#74563a" d="M314.46338,359.80664a7.471,7.471,0,0,1-3.02-.63867,116.55327,116.55327,0,0,0-47.28613-9.90332h-7a116.57924,116.57924,0,0,0-47.29639,9.90332,7.49992,7.49992,0,0,1-6.04785-13.72656,131.49094,131.49094,0,0,1,53.34424-11.17676h7a131.46667,131.46667,0,0,1,53.334,11.17676,7.50131,7.50131,0,0,1-3.02783,14.36523Z"/></svg>