<?xml version="1.0" encoding="UTF-8"?><!DOCTYPE svg PUBLIC "-//W3C//DTD SVG 1.1//EN" "http://www.w3.org/Graphics/SVG/1.1/DTD/svg11.dtd"><svg xmlns="http://www.w3.org/2000/svg" xmlns:xlink="http://www.w3.org/1999/xlink" version="1.1" id="Layer_1" x="0px" y="0px" width="512px" height="512px" viewBox="0 0 512 512" xml:space="preserve"><path fill="#A0BF19" d="M7.9 256C7.9 119 119 7.9 256 7.9S504.1 119 504.1 256 393 504.1 256 504.1 7.9 393 7.9 256z"/><path fill="#FCC288" d="M400.6 255.2c-3.1-3.9-5.5-5.5-6.3-9.4 6.3-3.1 12.6-15.7 12.6-19.7-.8-26.7-26-32.2-26-32.2h-75.5c-5.5-.8-1.6-15.7 1.6-21.2 13.4-23.6 21.2-44.8 21.2-55.9-4.7-54.3-41.7-44.8-43.3-39.3-.8 55.1-13.4 67.6-27.5 77.1-14.2 9.4-15.7 20.4-32.2 58.2C208.7 250.6 178 238 178 238s.8 11.8.8 122.7c92.8 17.3 145.5 15 169.9 12.6 24.4-2.3 32.3-18.9 32.3-27.5 0-10.2 3.1-15.7 7.1-18.1 17.3-14.2 11.8-18.9 7.1-29.1-4.7-10.2-3.1-13.4 4.7-20.5 9.2-8 3.9-19 .7-22.9z"/><path fill="#5C524A" d="M174.1 233.9h-47.9c-2.6 0-4.7 2.1-4.7 4.8v125c0 2.6 2.1 4.8 4.7 4.8h47.9c2.6 0 4.7-2.1 4.7-4.8v-125c0-2.7-2.1-4.8-4.7-4.8z"/><metadata><rdf:RDF xmlns:rdf="http://www.w3.org/1999/02/22-rdf-syntax-ns#" xmlns:rdfs="http://www.w3.org/2000/01/rdf-schema#" xmlns:dc="http://purl.org/dc/elements/1.1/"><rdf:Description about="https://iconscout.com/legal#licenses" dc:title="for" dc:description="for" dc:publisher="Iconscout" dc:date="2018-03-14" dc:format="image/svg+xml" dc:language="en"><dc:creator><rdf:Bag><rdf:li>Roundicons.com</rdf:li></rdf:Bag></dc:creator></rdf:Description></rdf:RDF></metadata></svg>