<svg xmlns="http://www.w3.org/2000/svg" data-name="Layer 1" viewBox="0 0 512 512"><circle cx="256" cy="256" r="219.5" fill="#fdd402"/><path fill="#fbbf13" d="M96.5,256C96.5,144.9519,178.969,53.17993,286,38.54956A221.36948,221.36948,0,0,0,256,36.5C134.7735,36.5,36.5,134.77344,36.5,256S134.7735,475.5,256,475.5a221.36948,221.36948,0,0,0,30-2.04956C178.969,458.82007,96.5,367.0481,96.5,256Z"/><path fill="#74563a" d="M364.32764 244.66992a7.46692 7.46692 0 0 1-4.06739-1.2041l-56.66894-36.66894a7.5 7.5 0 0 1 0-12.59375l56.66894-36.66895a7.5 7.5 0 1 1 8.14844 12.59375L321.47119 200.5l46.9375 30.37207a7.50075 7.50075 0 0 1-4.08105 13.79785zM147.67236 244.66992a7.50075 7.50075 0 0 1-4.08105-13.79785L190.52881 200.5l-46.9375-30.37207a7.5 7.5 0 1 1 8.14844-12.59375l56.66894 36.66895a7.5 7.5 0 0 1 0 12.59375l-56.66894 36.66894A7.46692 7.46692 0 0 1 147.67236 244.66992zM365.04979 358.01675a4.99424 4.99424 0 0 1-5.21667 7.30646 635.52249 635.52249 0 0 0-208.01482.05759 4.99666 4.99666 0 0 1-5.25431-7.22253 110.99448 110.99448 0 0 1 37.28565-42.15812c25.76971-17.05908 51.20215-17.76026 66.99817-18.1958 15.71582-.43311 45.75391-1.26123 75.67395 18.1958A116.66007 116.66007 0 0 1 365.04979 358.01675z"/><path fill="#674b34" d="M176.564,358.1582A110.99635,110.99635,0,0,1,213.84967,316c21.51306-14.24121,42.78613-17.08032,58.41882-17.88379a195.82372,195.82372,0,0,0-21.42065-.312c-15.796.43555-41.22846,1.13672-66.99817,18.1958A110.99635,110.99635,0,0,0,146.564,358.1582a4.99675,4.99675,0,0,0,5.25427,7.22266q11.6543-1.93615,24.38757-3.56128A4.93566,4.93566,0,0,1,176.564,358.1582Z"/><path fill="#74bf4b" d="M179.13275,346.80444c1.23926,6.19092,8.429,43.49707-.28491,68a51.15021,51.15021,0,0,1-7,14c-8.75531,12.0586-16.57166,10.69092-22,19-7.33539,11.22852-4.13324,30.67237,7,42,1.49878,1.52491,8.9422,9.09864,20,10,11.69891.95362,13.05609-6.7334,25-7,12.56018-.28027,15.227,8.12744,34,10a53.73467,53.73467,0,0,0,13,0c13.51953-1.73877,15.96338-7.64843,26-9,10.06641-1.35547,11.2688,4.09668,26,6,6.2124.80274,18.26611,2.36035,29-3,14.85181-7.4165,24.55676-26.76855,22-43-2.8396-18.02685-18.90112-20.12988-28-38-6.26685-12.3081-9.71924-33.05517,6.76977-69.09179a162.26887,162.26887,0,0,0-151.48486.09179Z"/><path fill="#13ad4c" d="M186.84784,489.80444c-11.13324-11.32763-14.33539-30.77148-7-42,5.42834-8.30908,13.24469-6.9414,22-19a51.15021,51.15021,0,0,0,7-14c4.84369-13.62019,4.77349-31.19632,3.54283-45.18542A32.23163,32.23163,0,0,1,234.38,336.10544a162.8691,162.8691,0,0,1,35.57119-7.40622C265.47253,328.282,260.82245,328.03076,256,328a162.96495,162.96495,0,0,0-76.86725,18.80444c1.23926,6.19092,8.429,43.49707-.28491,68a51.15021,51.15021,0,0,1-7,14c-8.75531,12.0586-16.57166,10.69092-22,19-7.33539,11.22852-4.13324,30.67237,7,42,1.49878,1.52491,8.9422,9.09864,20,10,7.94879.64795,11.12549-2.69189,16.09033-4.98413A36.69212,36.69212,0,0,1,186.84784,489.80444Z"/></svg>