<svg xmlns="http://www.w3.org/2000/svg" data-name="Layer 1" viewBox="0 0 512 512"><path fill="#fdd402" d="M475.5,266.62c0,121.23-98.27,219.5-219.5,219.5S36.5,387.85,36.5,266.62,134.77,47.12,256,47.12a219.31062,219.31062,0,0,1,219.5,219.5Z"/><path fill="#fbbf13" d="M96.5,266.61957C96.5,155.57141,178.969,63.7995,286,49.16907a221.37759,221.37759,0,0,0-30-2.0495c-121.2265,0-219.5,98.2735-219.5,219.5s98.2735,219.5,219.5,219.5a221.37921,221.37921,0,0,0,30-2.0495C178.969,469.43964,96.5,377.66772,96.5,266.61957Z"/><path fill="#74563a" d="M165.5 240.61963a35.54028 35.54028 0 0 1-35.5-35.5 7.5 7.5 0 0 1 15 0 20.5 20.5 0 1 0 41 0 7.5 7.5 0 0 1 15 0A35.54028 35.54028 0 0 1 165.5 240.61963zM346.5 240.61963a35.54028 35.54028 0 0 1-35.5-35.5 7.5 7.5 0 0 1 15 0 20.5 20.5 0 1 0 41 0 7.5 7.5 0 0 1 15 0A35.54028 35.54028 0 0 1 346.5 240.61963zM368.55664 398.62109a7.49722 7.49722 0 0 1-6.54541-3.82763 117.91792 117.91792 0 0 0-55.22266-50.12891A116.552 116.552 0 0 0 259.5 334.75977h-7a116.57358 116.57358 0 0 0-47.2959 9.90332 118.45755 118.45755 0 0 0-55.21435 50.1289 7.50013 7.50013 0 0 1-13.07911-7.34472 133.55143 133.55143 0 0 1 62.24854-56.51221A131.47793 131.47793 0 0 1 252.5 319.75977h7a132.16887 132.16887 0 0 1 93.69336 38.80664 132.92018 132.92018 0 0 1 21.895 28.87939 7.50238 7.50238 0 0 1-6.53174 11.17529z"/><path fill="#fbbf13" d="M459.81,184.97A50.5048,50.5048,0,0,1,374,148.86c0-21.24,9.11-37.37,19.21-53.58A220.06686,220.06686,0,0,1,459.81,184.97Z"/><path fill="#4ebaea" d="M431.087,32.46739c-.74945-3.55985-2.94934-6.587-6.587-6.587s-5.83751,3.02711-6.587,6.587C409.13043,74.18478,374,96.1413,374,137.8587a50.5,50.5,0,0,0,101,0C475,96.1413,439.86957,74.18478,431.087,32.46739Z"/><path fill="#2e99d4" d="M404,137.8587c0-32.99334,21.96509-53.63379,35.5-81.45758a102.65522,102.65522,0,0,1-8.413-23.93377c-.74946-3.55982-2.94935-6.58692-6.587-6.58692s-5.83752,3.0271-6.587,6.58692C409.13043,74.18475,374,96.1413,374,137.8587a50.53815,50.53815,0,0,0,65.5,48.2345A50.522,50.522,0,0,1,404,137.8587Z"/></svg>