<svg xmlns="http://www.w3.org/2000/svg" data-name="Layer 1" viewBox="0 0 512 512"><circle cx="256" cy="256" r="219.5" fill="#fdd402"/><path fill="#fbbf13" d="M96.5,256C96.5,144.95184,178.969,53.17993,286,38.5495A221.37921,221.37921,0,0,0,256,36.5C134.77344,36.5,36.5,134.7735,36.5,256S134.77344,475.5,256,475.5a221.37921,221.37921,0,0,0,30-2.0495C178.969,458.82007,96.5,367.04816,96.5,256Z"/><circle cx="165.5" cy="194.5" r="28" fill="#74563a"/><path fill="#674b34" d="M157.5,194.5a28.00478,28.00478,0,0,1,18-26.15405,28,28,0,1,0,0,52.3081A28.00478,28.00478,0,0,1,157.5,194.5Z"/><circle cx="346.5" cy="194.5" r="28" fill="#74563a"/><path fill="#674b34" d="M338.5,194.5a28.0047,28.0047,0,0,1,18-26.154,28,28,0,1,0,0,52.308A28.0047,28.0047,0,0,1,338.5,194.5Z"/><path fill="#74563a" d="M259.5,406h-7a132.417,132.417,0,0,1-127.792-97.36572,7.49971,7.49971,0,1,1,14.46484-3.96875A117.41578,117.41578,0,0,0,252.5,391h7a117.58564,117.58564,0,0,0,113.32617-86.34229,7.50014,7.50014,0,0,1,14.4668,3.96485A132.43186,132.43186,0,0,1,259.5,406Z"/></svg>